<?xml version="1.0" encoding="utf-8"?>
<!-- Generator: Adobe Illustrator 24.2.0, SVG Export Plug-In . SVG Version: 6.00 Build 0)  -->
<svg version="1.1" id="레이어_1" xmlns="http://www.w3.org/2000/svg" xmlns:xlink="http://www.w3.org/1999/xlink" x="0px"
	 y="0px" viewBox="0 0 728.4 119.3" style="enable-background:new 0 0 728.4 119.3;" xml:space="preserve">
<style type="text/css">
	.st0{fill:url(#SVGID_1_);}
	.st1{fill:url(#SVGID_2_);}
	.st2{fill:url(#SVGID_3_);}
	.st3{fill:url(#SVGID_4_);}
	.st4{fill:url(#SVGID_5_);}
	.st5{fill:url(#SVGID_6_);}
	.st6{fill:url(#SVGID_7_);}
	.st7{fill:url(#SVGID_8_);}
	.st8{fill:url(#SVGID_9_);}
	.st9{fill:url(#SVGID_10_);}
	.st10{fill:url(#SVGID_11_);}
	.st11{fill:url(#SVGID_12_);}
</style>
<g>
	<radialGradient id="SVGID_1_" cx="20.3275" cy="-38.1758" r="923.7028" gradientUnits="userSpaceOnUse">
		<stop  offset="0" style="stop-color:#175AA1"/>
		<stop  offset="0.7011" style="stop-color:#0F1737"/>
		<stop  offset="1" style="stop-color:#0F1737"/>
	</radialGradient>
	<path class="st0" d="M143.3,33.1c-3.9,3-5.9,6.9-5.9,11.7c0,4.9,2.4,9.1,7.3,12.6c2.2,1.6,5.9,3.7,10.8,6.1
		c4.8,2.4,8.4,4.4,10.4,5.8c3.3,2.3,4.9,4.8,4.9,7.6c0,2.7-1.2,4.8-3.6,6.4c-2.2,1.5-4.9,2.2-8.1,2.2c-3.2,0-6.1-0.7-8.8-2
		c-2.9-1.4-5-3.3-6.4-5.7c-1-1.8-1.6-4.5-1.6-8.2l0-0.8h-4.4v0.8c0,5.2,1.2,9.4,3.5,12.5c2.3,3,4.7,5.1,7,6.1c2.3,1,4.5,1.6,6.6,1.8
		c1.5,0.2,3.2,0.3,5,0.3c5.5,0,10.2-1.5,14.2-4.4c4.2-3.2,6.4-7.4,6.4-12.4c0-2.4-0.6-4.7-1.8-7c-1.5-2.7-4.1-5.1-7.7-7.4
		c-1.4-0.9-4.6-2.5-9.6-5c-7-3.5-11.5-6.3-13.4-8.3c-1.2-1.3-1.8-2.7-1.8-4.2c0-2.3,1-4.2,3.2-5.8c2-1.5,4.4-2.3,7.1-2.3
		c3.1-0.1,6.2,0.6,9.2,2.3c3,1.6,5.1,5.4,6.2,11.2l0.1,0.7h4.3l-0.1-0.9c-0.2-3-1-6-2.3-8.9c-1-2.2-2.8-4.2-5.2-6
		c-2.5-1.8-6.5-2.9-12.4-3.2C151.4,28.8,146.9,30.2,143.3,33.1"/>
	<radialGradient id="SVGID_2_" cx="20.3276" cy="-38.1756" r="923.7011" gradientUnits="userSpaceOnUse">
		<stop  offset="0" style="stop-color:#175AA1"/>
		<stop  offset="0.7011" style="stop-color:#0F1737"/>
		<stop  offset="1" style="stop-color:#0F1737"/>
	</radialGradient>
	<polygon class="st1" points="243.9,30.1 243.9,56.7 216.5,56.7 216.5,30.1 205.9,30.1 206,89.2 216.5,89.2 216.5,61.5 243.9,61.5 
		243.9,89.2 254.4,89.2 254.3,30.1 	"/>
	<radialGradient id="SVGID_3_" cx="20.3266" cy="-38.1756" r="923.7043" gradientUnits="userSpaceOnUse">
		<stop  offset="0" style="stop-color:#175AA1"/>
		<stop  offset="0.7011" style="stop-color:#0F1737"/>
		<stop  offset="1" style="stop-color:#0F1737"/>
	</radialGradient>
	<rect x="286.3" y="30.1" class="st2" width="10.5" height="59"/>
	<radialGradient id="SVGID_4_" cx="20.3266" cy="-38.1758" r="923.7034" gradientUnits="userSpaceOnUse">
		<stop  offset="0" style="stop-color:#175AA1"/>
		<stop  offset="0.7011" style="stop-color:#0F1737"/>
		<stop  offset="1" style="stop-color:#0F1737"/>
	</radialGradient>
	<polygon class="st3" points="371.8,30.1 371.8,71.9 334.7,30.1 328.9,30.1 328.9,89.2 334.6,89.2 334.6,45.2 374.7,90.1 
		377.5,90.1 377.5,30.1 	"/>
	<radialGradient id="SVGID_5_" cx="20.3279" cy="-38.1756" r="923.7005" gradientUnits="userSpaceOnUse">
		<stop  offset="0" style="stop-color:#175AA1"/>
		<stop  offset="0.7011" style="stop-color:#0F1737"/>
		<stop  offset="1" style="stop-color:#0F1737"/>
	</radialGradient>
	<polygon class="st4" points="446,30.1 446,56.7 418.5,56.7 418.5,30.1 408,30.1 408.1,89.2 418.5,89.2 418.5,61.5 446,61.5 
		446,89.2 456.4,89.2 456.4,30.1 	"/>
	<radialGradient id="SVGID_6_" cx="20.3282" cy="-38.1756" r="923.6998" gradientUnits="userSpaceOnUse">
		<stop  offset="0" style="stop-color:#175AA1"/>
		<stop  offset="0.7011" style="stop-color:#0F1737"/>
		<stop  offset="1" style="stop-color:#0F1737"/>
	</radialGradient>
	<path class="st5" d="M509.2,44.7l9.3,20.5h-19L509.2,44.7z M510.4,28.8l-28.5,60.4l6.5,0l9-19.2h23.2l3.6,7.8
		c1.6,3.4,2.5,5.5,2.7,6l2.2,5.4h13.5l-29.6-60.4H510.4z"/>
	<radialGradient id="SVGID_7_" cx="20.3267" cy="-38.1758" r="923.7028" gradientUnits="userSpaceOnUse">
		<stop  offset="0" style="stop-color:#175AA1"/>
		<stop  offset="0.7011" style="stop-color:#0F1737"/>
		<stop  offset="1" style="stop-color:#0F1737"/>
	</radialGradient>
	<polygon class="st6" points="610.7,30.1 610.7,71.9 573.6,30.1 567.8,30.1 567.8,89.2 573.5,89.2 573.5,45.2 613.3,89.8 
		613.5,90.1 616.4,90.1 616.4,30.1 	"/>
	<radialGradient id="SVGID_8_" cx="20.3279" cy="-38.1765" r="923.6989" gradientUnits="userSpaceOnUse">
		<stop  offset="0" style="stop-color:#175AA1"/>
		<stop  offset="0.7011" style="stop-color:#0F1737"/>
		<stop  offset="1" style="stop-color:#0F1737"/>
	</radialGradient>
	<rect x="640.1" y="57" class="st7" width="25.5" height="8"/>
	<radialGradient id="SVGID_9_" cx="20.3271" cy="-38.1758" r="923.6993" gradientUnits="userSpaceOnUse">
		<stop  offset="0" style="stop-color:#175AA1"/>
		<stop  offset="0.7011" style="stop-color:#0F1737"/>
		<stop  offset="1" style="stop-color:#0F1737"/>
	</radialGradient>
	<path class="st8" d="M690.9,33.1c-3.9,3-5.9,6.9-5.9,11.7c0,4.9,2.4,9.1,7.3,12.6c2.2,1.6,5.9,3.7,10.8,6.1
		c4.9,2.4,8.4,4.4,10.4,5.8c3.3,2.3,4.9,4.8,4.9,7.6c0,2.7-1.2,4.8-3.6,6.4c-2.2,1.5-4.9,2.2-8.1,2.2c-3.2,0-6.1-0.7-8.8-2
		c-2.9-1.4-5-3.3-6.4-5.7c-1-1.8-1.6-4.5-1.6-8.2l0-0.8h-4.4v0.8c0,5.2,1.2,9.4,3.5,12.5c2.3,3,4.7,5.1,7,6.1c2.3,1,4.5,1.6,6.6,1.8
		c1.5,0.2,3.2,0.3,5,0.3c5.5,0,10.2-1.5,14.2-4.4c4.2-3.2,6.4-7.4,6.4-12.4c0-2.4-0.6-4.7-1.8-7c-1.5-2.6-4.1-5.1-7.7-7.4
		c-1.4-0.9-4.6-2.5-9.6-5c-7-3.5-11.5-6.3-13.4-8.3c-1.2-1.3-1.8-2.7-1.8-4.2c0-2.3,1-4.2,3.2-5.8c2-1.5,4.4-2.3,7.1-2.3
		c3.1-0.1,6.2,0.6,9.2,2.3c3,1.6,5.1,5.4,6.2,11.2l0.1,0.7h4.3l-0.1-0.9c-0.2-3.1-1-6-2.3-8.9c-1-2.2-2.8-4.2-5.2-6
		c-2.5-1.8-6.5-2.9-12.4-3.2C699.1,28.8,694.6,30.2,690.9,33.1"/>
</g>
<g>
	<radialGradient id="SVGID_10_" cx="125.0303" cy="128.4709" r="174.8298" gradientUnits="userSpaceOnUse">
		<stop  offset="0" style="stop-color:#175AA1"/>
		<stop  offset="0.7011" style="stop-color:#0F1737"/>
		<stop  offset="1" style="stop-color:#0F1737"/>
	</radialGradient>
	<path class="st9" d="M3.7,44.9C1.6,48.9,0.5,53.5,0.3,58C0,64.8,1.3,71.7,4.4,77.8c0.3,0.6,0.7,1.2,1,1.8c3.1,5.1,7.7,9.2,12.2,13
		c3.6,3.1,7.3,6.1,10.9,9.2c0,0,0.8,0.7,0.8,0.7l8.1,6.8l8.3,7c4.6,3.9,11.5,3.9,16.1,0l8.3-7c4.5-3.8,9-7.5,13.5-11.2
		c7.3-6.1,11.9-15,11.2-24.6c-0.5-6.8-3.4-13.4-8.2-18.3l-5.2-4.6c-0.8-0.7-2.1-0.8-3,0l-4.4,3.7c-1.1,0.9-1.1,2.5,0,3.4l5.2,4.5
		c3.5,3.6,5.4,8.3,5.4,13.3c0,0.3,0,0.6,0,0.8c-0.2,4.9-2.6,9.4-6.3,12.5l-8.2,6.9l-8.1,6.8l-8.3,7l-8.3-7l-8.1-6.8L16.1,77.8
		c-5.4-4.6-9.4-10.6-11-17.5c-1.3-5.5-1.5-12.3,1.5-20C6,41.9,4.4,43.4,3.7,44.9"/>
	<radialGradient id="SVGID_11_" cx="11.1483" cy="1.5648" r="153.7883" gradientUnits="userSpaceOnUse">
		<stop  offset="0" style="stop-color:#175AA1"/>
		<stop  offset="0.7011" style="stop-color:#0F1737"/>
		<stop  offset="1" style="stop-color:#0F1737"/>
	</radialGradient>
	<path class="st10" d="M42.7,3l-8.3,7c-4.5,3.8-9,7.5-13.5,11.2C13.6,27.3,9,36.2,9.6,45.7c0.5,6.8,3.4,13.4,8.2,18.3l5.2,4.6
		c0.8,0.7,2.1,0.8,3,0l4.3-3.6c1-0.9,1.1-2.5,0.1-3.4L25.2,57c-3.5-3.6-5.4-8.3-5.4-13.3c0-0.3,0-0.6,0-0.8
		c0.2-4.9,2.6-9.4,6.3-12.5l8.2-6.9l8.1-6.8l8.3-7l8.3,7l8.1,6.8l21.3,17.9c5.4,4.6,9.4,10.6,11,17.5c1.3,5.5,1.5,12.3-1.5,20
		c0.6-1.5,2.2-3,2.9-4.5c2.1-4.1,3.2-8.6,3.3-13.2c0.3-6.8-0.9-13.7-4.1-19.8c-0.3-0.6-0.7-1.2-1-1.8c-3.1-5.1-7.7-9.2-12.2-13
		c-3.6-3.1-7.3-6.1-10.9-9.2c0,0-0.8-0.7-0.8-0.7l-8.1-6.8l-8.3-7C56.5,1,53.6,0,50.7,0C47.9,0,45,1,42.7,3"/>
	<radialGradient id="SVGID_12_" cx="11.148" cy="1.5648" r="153.789" gradientUnits="userSpaceOnUse">
		<stop  offset="0" style="stop-color:#175AA1"/>
		<stop  offset="0.7011" style="stop-color:#0F1737"/>
		<stop  offset="1" style="stop-color:#0F1737"/>
	</radialGradient>
	<path class="st11" d="M42.7,30.5l-5.1,4.3c-6.1,5.1-6.1,14.3,0,19.4l19.8,16.4c2.6,2.2,2.6,6.2,0,8.4l-3.6,3L41,71.3
		c-0.8-0.7-2.1-0.7-2.9,0l-4.2,3.5c-1.1,0.9-1.1,2.5-0.1,3.4l11.9,10.5l8.1,6.8l8.1-6.8l5.1-4.3c6.1-5.1,6.1-14.3,0-19.4L47.2,48.7
		c-2.6-2.2-2.6-6.2,0-8.4l3.6-3l12.5,10.9c0.8,0.7,2.1,0.7,2.9,0l4.5-3.7c1.1-0.9,1.1-2.5,0.1-3.4L58.8,30.5l-8.1-6.8L42.7,30.5z"/>
</g>
</svg>
