<svg xmlns="http://www.w3.org/2000/svg" width="264.065" height="297.509" viewBox="0 0 198.04875 223.13174"><path fill="#3617ce" d="M119.925 172.206h-66.34v-41.463h66.34c11.444 0 20.732 9.288 20.732 20.731 0 11.454-9.288 20.732-20.732 20.732m53.307-66.618-.544-.472.473-.534c10.612-12.08 16.995-26.849 16.995-41.576 0-3.931-.174-7.872-.862-11.608C183.875 22.138 158.064.062 127.244 0H0v51.306h117.821c10.582 0 19.162 8.58 19.162 19.171 0 10.582-8.58 19.162-19.162 19.162H53.584V62.842L0 89.639v133.493h131.184c30.44 0 56.18-20.454 64.227-48.33a66.563 66.563 0 0 0 2.638-18.524c0-19.049-9.524-37.533-24.817-50.69"/></svg>